<svg id="Layer_1" enable-background="new 0 0 512 512" height="512" viewBox="0 0 512 512" width="512" xmlns="http://www.w3.org/2000/svg"><g><path d="m55.925 408.428 90.103 77.546c33.071 16.642 70.424 26.026 109.972 26.026 39.552 0 76.907-9.385 109.98-26.03l90.143-77.612c28.262-39.939 44.875-88.706 44.875-141.356 0-135.309-109.689-244.998-244.998-244.998s-244.998 109.689-244.998 244.998c0 52.68 16.631 101.474 44.923 141.426z" fill="#ff4155"/><path d="m146.01 485.959c8.085 4.07 16.421 7.715 24.989 10.885 2.095-3.68 3.939-7.562 5.491-11.639l16.836-44.205h125.482l16.594 43.97c1.572 4.165 3.443 8.13 5.58 11.883 8.577-3.172 16.922-6.822 25.016-10.896l90.117-77.59c6.59-9.312 12.548-19.102 17.808-29.311l-128.373-340.166c-27.738-10.898-57.944-16.886-89.55-16.886-31.02 0-60.686 5.78-88 16.296l-129.84 340.912c5.254 10.18 11.202 19.942 17.779 29.228z" fill="#e80054"/><path d="m456.124 408.358-138.225-366.271c-.189-.501-.386-1.001-.611-1.549-22.254-54.086-99.115-54.058-121.279.128-.174.426-.344.857-.505 1.278l-139.579 366.484c23.136 32.671 54.077 59.418 90.103 77.546 2.057-3.212 3.82-6.677 5.23-10.379l21.212-55.695c1.353-3.553 4.76-5.901 8.562-5.901h150.11c3.812 0 7.226 2.361 8.572 5.927l20.948 55.509c1.413 3.745 3.211 7.263 5.319 10.535 36.047-18.141 67.003-44.912 90.143-77.612zm-233.639-119.779 25.384-66.648c3.001-7.881 14.156-7.864 17.134.026l25.152 66.648c2.262 5.993-2.167 12.397-8.572 12.397h-50.536c-6.417 0-10.846-6.426-8.562-12.423z" fill="#fff2bd"/><path d="m355.307 141.212-37.408-99.125c-.189-.501-.386-1.001-.611-1.549-13.736-33.383-48.272-46.141-77.913-38.283-2.951 6.512-9.4 25.506 10.291 35.078 24.001 11.667 68.834 111.64 68.834 111.64s25.343 16.299 36.807-7.761z" fill="#fffbeb"/><path d="m417.519 310.368c-18.124 7.363-31.826-4.705-37.669-11.39-1.883-2.154-4.94-2.878-7.552-1.713-21.346 9.516-37.423-2.534-43.452-8.281-1.642-1.565-3.971-2.17-6.162-1.583-19.865 5.321-33.95-9.127-38.552-14.757l6.023 15.961c2.262 5.993-2.167 12.397-8.572 12.397h-50.536c-6.417 0-10.846-6.426-8.562-12.423l17.227-45.232c-.628-.15-1.277-.216-1.929-.178-16.393.952-22.297-10.832-24.37-18.067-.854-2.98-3.652-4.942-6.747-4.749-21.671 1.354-29.22-13.8-31.633-21.406-.784-2.472-3.01-4.163-5.592-4.4-19.051-1.75-23.268-14.459-24.189-20.66l-89.327 234.541c23.136 32.671 54.077 59.418 90.103 77.546 2.057-3.212 3.82-6.677 5.23-10.379l21.212-55.695c1.353-3.553 4.76-5.901 8.562-5.901h150.11c3.812 0 7.226 2.361 8.572 5.927l20.948 55.509c1.413 3.745 3.211 7.263 5.319 10.535 36.048-18.141 67.003-44.912 90.143-77.613l-37.267-98.749c-.411.304-.856.565-1.338.76z" fill="#ffdd40"/><path d="m285.587 53.581c-10.643-25.867-47.275-25.788-57.848.06-.068.167-.135.335-.199.503l-146.413 384.425c10.817 11.024 22.667 21.028 35.396 29.859 1.088-1.521 2.003-3.204 2.7-5.034l31.869-83.675h210.088l31.554 83.612c.702 1.859 1.627 3.566 2.73 5.106 12.737-8.835 24.595-18.845 35.418-29.877l-145.055-384.369c-.077-.204-.157-.408-.24-.61zm-117.571 281.701 88.602-232.635 87.792 232.635z" fill="#ffdd40"/><circle cx="293.339" cy="473.77" fill="#f9a0b1" r="8.25"/><circle cx="89" cy="155.333" fill="#f9a0b1" r="8.25"/><ellipse cx="56.69" cy="212.227" fill="#ff7186" rx="14.777" ry="14.777" transform="matrix(.222 -.975 .975 .222 -162.827 220.365)"/><ellipse cx="428.548" cy="148.973" fill="#ff7186" rx="14.777" ry="14.777" transform="matrix(.222 -.975 .975 .222 188.107 533.725)"/><path d="m372.297 297.264c-21.346 9.516-37.423-2.534-43.452-8.281-.712-.679-1.557-1.164-2.46-1.463l18.024 47.761h-176.393l43.21-113.454c-1.25-1.014-2.853-1.581-4.56-1.474-21.671 1.354-29.22-13.8-31.633-21.406-.325-1.024-.907-1.903-1.649-2.611l-92.257 242.233c10.817 11.024 22.667 21.028 35.396 29.859 1.088-1.521 2.003-3.204 2.7-5.034l31.869-83.675h210.088l31.554 83.612c.702 1.859 1.627 3.566 2.73 5.106 12.737-8.835 24.595-18.845 35.418-29.877l-53.307-141.253c-1.645-.743-3.555-.811-5.278-.043z" fill="#ffb332"/></g></svg>